<?xml version="1.0" encoding="UTF-8" standalone="no" ?>
<!DOCTYPE svg PUBLIC "-//W3C//DTD SVG 1.1//EN" "http://www.w3.org/Graphics/SVG/1.1/DTD/svg11.dtd">
<svg xmlns="http://www.w3.org/2000/svg" xmlns:xlink="http://www.w3.org/1999/xlink" version="1.1" width="184.16" height="162.9728" xml:space="preserve">
<desc>Created with Fabric.js 1.6.0-rc.1</desc>
<defs></defs>
<g style="stroke: none; stroke-width: 1; stroke-dasharray: none; stroke-linecap: butt; stroke-linejoin: miter; stroke-miterlimit: 10; fill: none; fill-rule: nonzero; opacity: 1;" transform="translate(10 10) scale(0.32 0.32)" >
  <path d="M 14.097 66.566 c 1.15 -0.235 2.34 -0.359 3.559 -0.359 C 16.437 66.207 15.246 66.33 14.097 66.566 z" style="stroke: none; stroke-width: 1; stroke-dasharray: none; stroke-linecap: butt; stroke-linejoin: miter; stroke-miterlimit: 10; fill: #BEC8DC; fill-rule: nonzero; opacity: 1;" transform=" matrix(1 0 0 1 0 0) " stroke-linecap="round" />
  <path d="M 0.583 79.434 c 0.099 -0.384 0.203 -0.766 0.328 -1.14 C 0.786 78.667 0.682 79.049 0.583 79.434 z" style="stroke: none; stroke-width: 1; stroke-dasharray: none; stroke-linecap: butt; stroke-linejoin: miter; stroke-miterlimit: 10; fill: #BEC8DC; fill-rule: nonzero; opacity: 1;" transform=" matrix(1 0 0 1 0 0) " stroke-linecap="round" />
  <path d="M 11.811 67.218 c 0.744 -0.262 1.501 -0.492 2.285 -0.652 C 13.312 66.727 12.555 66.957 11.811 67.218 z" style="stroke: none; stroke-width: 1; stroke-dasharray: none; stroke-linecap: butt; stroke-linejoin: miter; stroke-miterlimit: 10; fill: #BEC8DC; fill-rule: nonzero; opacity: 1;" transform=" matrix(1 0 0 1 0 0) " stroke-linecap="round" />
  <path d="M 370.759 331.034 H 0 v 26.483 c 0 9.751 7.904 17.655 17.655 17.655 h 150.069 H 291.31 h 141.241 c 9.751 0 17.655 -7.904 17.655 -17.655 v -8.828 h -61.793 C 378.663 348.69 370.759 340.786 370.759 331.034 z M 229.517 366.345 c -7.313 0 -13.241 -5.929 -13.241 -13.241 s 5.929 -13.241 13.241 -13.241 s 13.241 5.929 13.241 13.241 S 236.83 366.345 229.517 366.345 z" style="stroke: none; stroke-width: 1; stroke-dasharray: none; stroke-linecap: butt; stroke-linejoin: miter; stroke-miterlimit: 10; fill: #BEC8DC; fill-rule: nonzero; opacity: 1;" transform=" matrix(1 0 0 1 0 0) " stroke-linecap="round" />
  <path d="M 370.759 304.552 H 26.483 V 92.69 h 344.276 v -8.828 c 0 -9.751 7.904 -17.655 17.655 -17.655 H 17.655 c -1.218 0 -2.409 0.124 -3.559 0.359 c -0.785 0.161 -1.543 0.392 -2.285 0.652 C 6.676 69.022 2.631 73.119 0.91 78.293 c -0.125 0.374 -0.228 0.756 -0.328 1.14 C 0.215 80.851 0 82.329 0 83.862 v 247.172 h 370.759 V 304.552 z" style="stroke: none; stroke-width: 1; stroke-dasharray: none; stroke-linecap: butt; stroke-linejoin: miter; stroke-miterlimit: 10; fill: #464655; fill-rule: nonzero; opacity: 1;" transform=" matrix(1 0 0 1 0 0) " stroke-linecap="round" />
  <path d="M 26.483 304.552 h 344.276 v -88.276 H 189.035 l 20.242 20.242 c 3.448 3.448 3.448 9.035 0 12.483 c -1.725 1.724 -3.983 2.585 -6.242 2.585 s -4.518 -0.862 -6.241 -2.586 l -35.31 -35.31 c -3.448 -3.448 -3.448 -9.035 0 -12.483 l 35.31 -35.31 c 3.448 -3.448 9.035 -3.448 12.483 0 c 3.448 3.448 3.448 9.035 0 12.483 l -20.242 20.242 h 181.724 V 92.69 H 26.483 V 304.552 z" style="stroke: none; stroke-width: 1; stroke-dasharray: none; stroke-linecap: butt; stroke-linejoin: miter; stroke-miterlimit: 10; fill: #03889a; fill-rule: nonzero; opacity: 1;" transform=" matrix(1 0 0 1 0 0) " stroke-linecap="round" />
  <polygon points="164.78,392.83 167.72,375.17 158.9,428.14 300.14,428.14 291.31,375.17 294.25,392.83 " style="stroke: none; stroke-width: 1; stroke-dasharray: none; stroke-linecap: butt; stroke-linejoin: miter; stroke-miterlimit: 10; fill: #AFBBD0; fill-rule: nonzero; opacity: 1;" transform="  matrix(1 0 0 1 0 0) "/>
  <path d="M 150.069 436.966 c 0 4.875 3.953 8.828 8.828 8.828 h 141.241 c 4.875 0 8.828 -3.953 8.828 -8.828 s -3.953 -8.828 -8.828 -8.828 H 158.897 C 154.022 428.138 150.069 432.09 150.069 436.966 z" style="stroke: none; stroke-width: 1; stroke-dasharray: none; stroke-linecap: butt; stroke-linejoin: miter; stroke-miterlimit: 10; fill: #BEC8DC; fill-rule: nonzero; opacity: 1;" transform=" matrix(1 0 0 1 0 0) " stroke-linecap="round" />
  <polygon points="164.78,392.83 294.25,392.83 291.31,375.17 167.72,375.17 " style="stroke: none; stroke-width: 1; stroke-dasharray: none; stroke-linecap: butt; stroke-linejoin: miter; stroke-miterlimit: 10; fill: #96A5B9; fill-rule: nonzero; opacity: 1;" transform="  matrix(1 0 0 1 0 0) "/>
  <circle cx="229.52100000000002" cy="353.101" r="13.241" style="stroke: none; stroke-width: 1; stroke-dasharray: none; stroke-linecap: butt; stroke-linejoin: miter; stroke-miterlimit: 10; fill: #96A5B9; fill-rule: nonzero; opacity: 1;" transform="  matrix(1 0 0 1 0 0) "/>
  <path d="M 494.345 66.207 h -61.793 h -44.138 c -9.751 0 -17.655 7.904 -17.655 17.655 v 8.828 v 105.931 h 17.655 v -97.103 h 105.931 v 211.862 H 388.414 v -97.103 h -17.655 v 88.276 v 26.483 c 0 9.751 7.904 17.655 17.655 17.655 h 61.793 h 44.138 c 9.75 0 17.655 -7.904 17.655 -17.655 V 83.862 C 512 74.111 504.095 66.207 494.345 66.207 z M 410.483 79.448 c 2.438 0 4.414 1.976 4.414 4.414 s -1.976 4.414 -4.414 4.414 s -4.414 -1.976 -4.414 -4.414 S 408.045 79.448 410.483 79.448 z M 454.621 88.276 h -26.483 c -2.438 0 -4.414 -1.976 -4.414 -4.414 s 1.976 -4.414 4.414 -4.414 h 26.483 c 2.438 0 4.414 1.976 4.414 4.414 S 457.058 88.276 454.621 88.276 z M 441.379 339.862 c -4.875 0 -8.828 -3.953 -8.828 -8.828 s 3.953 -8.828 8.828 -8.828 s 8.828 3.953 8.828 8.828 S 446.254 339.862 441.379 339.862 z" style="stroke: none; stroke-width: 1; stroke-dasharray: none; stroke-linecap: butt; stroke-linejoin: miter; stroke-miterlimit: 10; fill: #707384; fill-rule: nonzero; opacity: 1;" transform=" matrix(1 0 0 1 0 0) " stroke-linecap="round" />
  <path d="M 428.897 198.621 l -20.242 -20.242 c -3.448 -3.448 -3.448 -9.035 0 -12.483 c 3.448 -3.448 9.035 -3.448 12.483 0 l 35.31 35.31 c 3.448 3.448 3.448 9.035 0 12.483 L 421.139 249 c -1.725 1.725 -3.983 2.586 -6.242 2.586 s -4.518 -0.862 -6.241 -2.586 c -3.448 -3.448 -3.448 -9.035 0 -12.483 l 20.242 -20.241 h -40.483 v 97.103 h 105.931 V 101.517 H 388.414 v 97.103 H 428.897 z" style="stroke: none; stroke-width: 1; stroke-dasharray: none; stroke-linecap: butt; stroke-linejoin: miter; stroke-miterlimit: 10; fill: #1f4fb5; fill-rule: nonzero; opacity: 1;" transform=" matrix(1 0 0 1 0 0) " stroke-linecap="round" />
  <path d="M 454.621 79.448 h -26.483 c -2.438 0 -4.414 1.976 -4.414 4.414 s 1.976 4.414 4.414 4.414 h 26.483 c 2.438 0 4.414 -1.976 4.414 -4.414 S 457.058 79.448 454.621 79.448 z" style="stroke: none; stroke-width: 1; stroke-dasharray: none; stroke-linecap: butt; stroke-linejoin: miter; stroke-miterlimit: 10; fill: #464655; fill-rule: nonzero; opacity: 1;" transform=" matrix(1 0 0 1 0 0) " stroke-linecap="round" />
  <circle cx="410.484" cy="83.864" r="4.414" style="stroke: none; stroke-width: 1; stroke-dasharray: none; stroke-linecap: butt; stroke-linejoin: miter; stroke-miterlimit: 10; fill: #464655; fill-rule: nonzero; opacity: 1;" transform="  matrix(1 0 0 1 0 0) "/>
  <circle cx="441.378" cy="331.03799999999995" r="8.828" style="stroke: none; stroke-width: 1; stroke-dasharray: none; stroke-linecap: butt; stroke-linejoin: miter; stroke-miterlimit: 10; fill: #464655; fill-rule: nonzero; opacity: 1;" transform="  matrix(1 0 0 1 0 0) "/>
  <path d="M 209.276 178.379 c 3.448 -3.448 3.448 -9.035 0 -12.483 c -3.448 -3.448 -9.035 -3.448 -12.483 0 l -35.31 35.31 c -3.448 3.448 -3.448 9.035 0 12.483 l 35.31 35.31 c 1.725 1.725 3.982 2.586 6.241 2.586 s 4.518 -0.862 6.241 -2.586 c 3.448 -3.448 3.448 -9.035 0 -12.483 l -20.239 -20.241 h 181.724 h 17.655 h 40.483 l -20.242 20.242 c -3.448 3.448 -3.448 9.035 0 12.483 c 1.725 1.725 3.982 2.586 6.241 2.586 s 4.518 -0.862 6.241 -2.586 l 35.31 -35.31 c 3.448 -3.448 3.448 -9.035 0 -12.483 l -35.31 -35.31 c -3.448 -3.448 -9.035 -3.448 -12.483 0 s -3.448 9.035 0 12.483 l 20.243 20.241 h -40.483 h -17.655 H 189.035 L 209.276 178.379 z" style="stroke: none; stroke-width: 1; stroke-dasharray: none; stroke-linecap: butt; stroke-linejoin: miter; stroke-miterlimit: 10; fill: #FFFFFF; fill-rule: nonzero; opacity: 1;" transform=" matrix(1 0 0 1 0 0) " stroke-linecap="round" />
</g>
</svg>